<?xml version="1.0" encoding="UTF-8" standalone="no"?><svg xmlns="http://www.w3.org/2000/svg" xmlns:xlink="http://www.w3.org/1999/xlink" contentScriptType="text/ecmascript" zoomAndPan="magnify" contentStyleType="text/css" stroke="#000000" stroke-linecap="square" version="1" width="171" stroke-miterlimit="10" fill="#000000" preserveAspectRatio="xMidYMid meet" viewBox="0 0 171.12 42.96" height="43"><g><g fill="#bbd6ff" stroke="#bbd6ff"><path d="M.6 20.76C.6 9.63 9.82.6 21.19.6H149.93c11.37 0 20.59 9.03 20.59 20.16V22.2c0 11.13-9.22 20.16-20.59 20.16H21.19C9.82 42.36.6 33.33.6 22.2Z" stroke="none"/></g><g fill="#2f6bff" fill-opacity="0.42" stroke-opacity="0.42" stroke="#2f6bff"><path d="M0 20.76C0 9.28 9.5 0 21.19 0H149.93V.6 0c11.69 0 21.19 9.28 21.19 20.76h-.6.6V22.2h-.6.6c0 11.48-9.5 20.76-21.19 20.76v-.6.6H21.19v-.6.6C9.5 42.96 0 33.68 0 22.2V20.76H.6 0m1.2 0V22.2H.6h.6c0 10.79 8.94 19.56 19.99 19.56H149.93c11.05 0 19.99-8.77 19.99-19.56V20.76c0-10.79-8.94-19.56-19.99-19.56H21.19V.6v.6C10.14 1.2 1.2 9.97 1.2 20.76Z" stroke="none"/></g></g></svg>